<svg xmlns="http://www.w3.org/2000/svg" viewBox="0 0 272 272" width="272" height="272">
<rect width="272" height="272" rx="24" fill="#FDFEFE"/>
<path fill="#4384D0" d="M151.592606,46.136589 C142.115036,42.244251 133.109116,42.700592 124.932396,48.046963 C118.564323,52.210739 112.088310,56.676422 106.987579,62.227547 C88.634842,82.200836 70.777191,102.632004 52.913864,123.048874 C50.192345,126.159431 47.647701,127.868973 43.282974,127.756905 C30.683828,127.433395 18.071001,127.642570 4.740167,127.642570 C5.511225,126.184952 5.780493,125.262032 6.364895,124.630913 C28.530231,100.693741 50.222893,76.287148 73.154213,53.106117 C82.740814,43.415123 94.427376,35.457962 106.117134,28.270554 C124.181946,17.163462 142.924469,18.642899 160.302017,30.206017 C171.203339,37.459808 181.617599,45.647057 191.342331,54.421875 C207.160797,68.695221 222.269272,83.758041 237.575195,98.593117 C239.218613,100.185959 240.184418,102.477913 241.464569,104.445557 C242.213058,104.072876 242.961563,103.700195 243.710052,103.327515 C245.802536,97.010376 247.895035,90.693245 250.462936,82.940842 C256.972595,98.416794 262.922089,112.561012 269.114014,127.281570 C251.438202,127.281570 234.452026,127.281570 217.465851,127.281570 C217.309280,126.987175 217.152710,126.692780 216.996140,126.398392 C223.338821,122.079300 229.681519,117.760216 236.363602,113.210014 C235.561096,112.223457 235.080490,111.390808 234.386765,110.814911 C213.250259,93.268562 192.219864,75.590210 170.854630,58.326351 C165.081238,53.661251 158.283432,50.263927 151.592606,46.136589z"/>
<path fill="#4384D0" d="M174.594727,241.595901 C164.882889,247.711731 155.027054,252.410156 143.667038,252.961716 C130.719315,253.590363 119.063202,249.200134 109.271515,241.474625 C93.481285,229.016342 78.345703,215.697220 63.337193,202.289932 C53.032700,193.084839 43.417755,183.108322 33.477058,173.494736 C32.448620,172.500153 31.300499,171.629303 29.650146,170.227173 C27.360506,177.050812 25.274208,183.268433 22.687431,190.977600 C16.195797,175.571762 10.252650,161.467575 4.067770,146.789719 C21.731358,146.789719 38.883316,146.789719 57.309395,146.789719 C50.023304,151.758148 43.557629,156.167130 36.876247,160.723206 C37.330620,161.489822 37.526653,162.153915 37.969261,162.519516 C60.569656,181.188629 83.190773,199.832642 105.812035,218.476486 C106.325851,218.899963 106.856110,219.305435 107.396881,219.693985 C128.188873,234.633240 142.498260,234.601181 160.801865,216.657883 C178.010620,199.787872 193.608963,181.272385 209.857300,163.427567 C213.443710,159.488800 217.139908,155.569519 220.134079,151.195328 C222.968994,147.053757 226.451309,146.147293 231.136475,146.261581 C242.461639,146.537811 253.798370,146.328461 265.130341,146.355560 C266.046753,146.357758 266.962402,146.671463 268.609467,146.975266 C266.432007,149.606705 264.717194,151.785629 262.892365,153.868179 C240.165115,179.805527 217.758514,206.059875 191.582916,228.696136 C186.306152,233.259369 180.475876,237.182541 174.594727,241.595901z"/>
<path fill="#4384D0" d="M86.409103,129.744431 C83.428925,140.419235 86.698494,149.808609 94.936394,155.016769 C103.545135,160.459381 113.566887,159.227081 121.982773,151.927368 C123.818291,150.335297 126.043816,148.798981 128.338638,148.214783 C132.715652,147.100510 136.619766,148.427048 139.178818,152.434372 C141.983902,156.826904 141.270584,161.109634 138.095032,164.901123 C131.488983,172.788513 122.736893,177.208313 112.769859,178.713638 C90.370827,182.096542 68.437271,166.246826 64.913773,144.540756 C61.099480,121.043350 75.759148,99.655190 98.990257,95.487030 C113.214737,92.934845 125.705536,97.115440 136.078369,107.175659 C141.070145,112.016998 141.471893,118.573433 137.393677,122.747292 C133.122742,127.118401 127.205414,126.877129 121.793617,122.111206 C109.204498,111.024590 93.476715,114.267242 86.409103,129.744431z"/>
<path fill="#4284D0" d="M198.638702,95.770065 C205.935760,96.790573 209.282532,100.267441 208.906876,105.978142 C208.554932,111.328514 204.577988,114.688530 198.198456,114.851410 C194.050919,114.957298 189.898483,114.871361 185.170334,114.871361 C185.079269,116.926956 184.935989,118.682846 184.933960,120.438896 C184.916473,135.596237 184.966309,150.753799 184.905945,165.910934 C184.878586,172.783646 181.899063,177.112015 176.814026,178.071411 C169.425812,179.465378 164.169327,174.867874 164.108444,166.622818 C163.996506,151.466248 164.068115,136.308334 164.063370,121.150978 C164.062805,119.343933 164.063293,117.536888 164.063293,114.914024 C159.598709,114.914024 155.508011,115.017586 151.424423,114.891426 C144.012634,114.662453 139.971085,111.118347 140.055695,105.110008 C140.138062,99.260590 144.714005,95.521614 151.718094,95.554474 C167.206268,95.627151 182.694489,95.689224 198.638702,95.770065z"/>
</svg>
